<?xml version="1.0"?><svg enable-background="new 0 0 204 208" id="twitch" version="1.1" viewBox="0 0 204 208" xml:space="preserve" xmlns="http://www.w3.org/2000/svg" xmlns:xlink="http://www.w3.org/1999/xlink"><g><path d="M200,0H18c-1.4219,0-2.7383,0.7539-3.4551,1.9844l-14,24C0.1875,26.5977,0,27.293,0,28v148   c0,2.2109,1.791,4,4,4h44v24c0,2.2109,1.791,4,4,4h28c0.9883,0,1.9414-0.3672,2.6758-1.0273L112.6465,180H150   c1.0039,0,1.9707-0.3789,2.709-1.0547l50-46C203.5312,132.1875,204,131.1172,204,130V4C204,1.7891,202.209,0,200,0z M172,116.3438   L148.3438,140H104c-1.0605,0-2.0781,0.4219-2.8281,1.1719L84,158.3438V144c0-2.2109-1.791-4-4-4H40V28h132V116.3438z" fill="#314E55"/><path d="M20.2969,8L8,29.082V172h44c2.209,0,4,1.7891,4,4v24h22.4648l29.9707-26.9727   c0.7344-0.6602,1.6875-1.0273,2.6758-1.0273h37.3281L196,128.2461V8H20.2969z M172,116.3438L148.3438,140H104   c-1.0605,0-2.0781,0.4219-2.8281,1.1719L84,158.3438V144c0-2.2109-1.791-4-4-4H40V28h132V116.3438z" fill="#73C9C9"/><path d="M176,20H36c-2.209,0-4,1.7891-4,4v120c0,2.2109,1.791,4,4,4h40v20c0,1.6172,0.9746,3.0781,2.4688,3.6953   C78.9648,171.9023,79.4844,172,80,172c1.041,0,2.0625-0.4062,2.8281-1.1719L105.6562,148H150c1.0605,0,2.0781-0.4219,2.8281-1.1719   l26-26c0.75-0.75,1.1719-1.7656,1.1719-2.8281V24C180,21.7891,178.209,20,176,20z M172,116.3438L148.3438,140H104   c-1.0605,0-2.0781,0.4219-2.8281,1.1719L84,158.3438V144c0-2.2109-1.791-4-4-4H40V28h132V116.3438z" fill="#314E55"/><path d="M84,112h16c2.209,0,4-1.7891,4-4V56c0-2.2109-1.791-4-4-4H84c-2.209,0-4,1.7891-4,4v52   C80,110.2109,81.791,112,84,112z" fill="#314E55"/><rect fill="#73C9C9" height="44" width="8" x="88" y="60"/><path d="M124,112h16c2.209,0,4-1.7891,4-4V56c0-2.2109-1.791-4-4-4h-16c-2.209,0-4,1.7891-4,4v52   C120,110.2109,121.791,112,124,112z" fill="#314E55"/><rect fill="#73C9C9" height="44" width="8" x="128" y="60"/></g></svg>