<?xml version="1.0"?><svg data-name="Layer 1" id="Layer_1" viewBox="0 0 64 64" xmlns="http://www.w3.org/2000/svg"><defs><style>.cls-1{fill:#4fbe9f;}.cls-2{fill:#09816c;}.cls-3{fill:#dcdfe2;}.cls-4{fill:#ebeef2;}</style></defs><title/><path class="cls-1" d="M13,14.49a5.54,5.54,0,0,0-4.09,4.57,96.67,96.67,0,0,0,0,25.88A5.54,5.54,0,0,0,13,49.51a74,74,0,0,0,19,2.38,74,74,0,0,0,19-2.38,5.54,5.54,0,0,0,4.09-4.57A96.26,96.26,0,0,0,56,32a96.26,96.26,0,0,0-.87-12.94A5.54,5.54,0,0,0,51,14.49a74,74,0,0,0-19-2.38A74,74,0,0,0,13,14.49Z"/><path class="cls-2" d="M31,26.13A3.26,3.26,0,0,0,26.1,29V51.67c1.92.14,3.89.22,5.9.22a74.7,74.7,0,0,0,18.18-2.17L54,47.53a5.54,5.54,0,0,0,1.11-2.59c.21-1.52.37-3.08.5-4.66Z"/><path class="cls-3" d="M26.1,25.81V38.19a1.4,1.4,0,0,0,2.09,1.21L39,33.21a1.39,1.39,0,0,0,0-2.42L28.19,24.6A1.4,1.4,0,0,0,26.1,25.81Z"/><path class="cls-4" d="M28.19,24.6h0a1.39,1.39,0,0,0-2.09,1.21v12.1l3.4-3.41A6.29,6.29,0,0,0,28.19,24.6Z"/></svg>