<svg width="248" height="40" viewBox="0 0 248 40" fill="none" xmlns="http://www.w3.org/2000/svg">
<g filter="url(#filter0_d_150_2)">
<path d="M4.47303 0.559116H9.93403C10.5074 0.559116 10.9804 0.788449 11.353 1.24712L26.833 21.3711V1.07511C26.833 0.931782 26.876 0.817115 26.962 0.731117C27.0767 0.61645 27.2057 0.559116 27.349 0.559116H31.778C31.9214 0.559116 32.036 0.61645 32.122 0.731117C32.2367 0.817115 32.294 0.931782 32.294 1.07511V30.1431C32.294 30.4871 32.122 30.6591 31.778 30.6591H27.693C27.1197 30.6591 26.6467 30.4298 26.274 29.9711L4.17203 1.16112C4.05737 1.04645 4.04303 0.917449 4.12903 0.774116C4.21503 0.630783 4.3297 0.559116 4.47303 0.559116ZM35.7502 30.1431L57.8522 1.33312C58.2248 0.874449 58.6978 0.645115 59.2712 0.645115H63.3562C63.7002 0.645115 63.8722 0.817115 63.8722 1.16112V30.2291C63.8722 30.5731 63.7002 30.7451 63.3562 30.7451H59.2712C58.6978 30.7451 58.2248 30.5158 57.8522 30.0571L50.4132 20.3391L42.9312 30.0571C42.5585 30.5158 42.0855 30.7451 41.5122 30.7451H36.0512C35.9078 30.7451 35.7932 30.6878 35.7072 30.5731C35.6212 30.4298 35.6355 30.2865 35.7502 30.1431ZM53.9822 15.6951L58.4112 21.4571V9.93312L53.9822 15.6951ZM70.5963 0.645115H75.0253C75.398 0.645115 75.5843 0.817115 75.5843 1.16112V25.2841H87.6243C87.7963 25.2841 87.911 25.3558 87.9683 25.4991C88.0543 25.6425 88.0543 25.7715 87.9683 25.8861L84.7433 30.0571C84.3706 30.5158 83.912 30.7451 83.3673 30.7451H70.5963C70.453 30.7451 70.324 30.7021 70.2093 30.6161C70.1233 30.5015 70.0803 30.3725 70.0803 30.2291V1.16112C70.0803 1.01778 70.1233 0.903116 70.2093 0.817115C70.324 0.702449 70.453 0.645115 70.5963 0.645115ZM90.1663 15.5661C90.1663 13.3588 90.5677 11.3091 91.3703 9.41712C92.2017 7.49645 93.3053 5.84812 94.6813 4.47212C96.086 3.06745 97.7343 1.97812 99.6263 1.20412C101.518 0.401449 103.554 0.0144489 105.732 0.0431152C107.911 0.0717815 109.946 0.501782 111.838 1.33312C113.73 2.16445 115.364 3.29678 116.74 4.73012C118.145 6.16345 119.249 7.84045 120.051 9.76112C120.854 11.6531 121.241 13.6741 121.212 15.8241C121.184 18.0028 120.754 20.0381 119.922 21.9301C119.091 23.8221 117.959 25.4705 116.525 26.8751C115.121 28.2798 113.472 29.3835 111.58 30.1861C109.688 30.9601 107.653 31.3471 105.474 31.3471C103.324 31.3471 101.303 30.9458 99.4113 30.1431C97.548 29.3118 95.9283 28.1938 94.5523 26.7891C93.1763 25.3558 92.1013 23.6788 91.3273 21.7581C90.5533 19.8374 90.1663 17.7734 90.1663 15.5661ZM95.6703 15.7811C95.6703 17.1858 95.9427 18.5188 96.4873 19.7801C97.032 21.0414 97.763 22.1451 98.6803 23.0911C99.5977 24.0371 100.658 24.7825 101.862 25.3271C103.066 25.8718 104.356 26.1441 105.732 26.1441C107.08 26.1155 108.355 25.8145 109.559 25.2411C110.763 24.6678 111.81 23.9081 112.698 22.9621C113.616 21.9875 114.332 20.8695 114.848 19.6081C115.364 18.3181 115.608 16.9708 115.579 15.5661C115.579 14.1615 115.307 12.8285 114.762 11.5671C114.218 10.3058 113.487 9.21645 112.569 8.29912C111.652 7.35312 110.577 6.60778 109.344 6.06312C108.14 5.51845 106.865 5.24611 105.517 5.24611C104.17 5.27478 102.894 5.57578 101.69 6.14912C100.486 6.69378 99.44 7.45345 98.5513 8.42811C97.6627 9.37412 96.9603 10.4778 96.4443 11.7391C95.9283 13.0004 95.6703 14.3478 95.6703 15.7811ZM126.14 1.07511C126.14 0.931782 126.183 0.817115 126.269 0.731117C126.384 0.61645 126.513 0.559116 126.656 0.559116H149.36C149.503 0.559116 149.618 0.61645 149.704 0.731117C149.819 0.817115 149.876 0.931782 149.876 1.07511V7.39612C149.876 7.79745 149.747 8.15578 149.489 8.47112L142.695 17.3721L152.413 30.0571C152.499 30.2005 152.499 30.3438 152.413 30.4871C152.356 30.6018 152.255 30.6591 152.112 30.6591H146.651C146.078 30.6591 145.605 30.4298 145.232 29.9711L135.815 17.7161C135.614 17.4868 135.614 17.2718 135.815 17.0711L144.286 6.02012H131.644V30.1431C131.644 30.4871 131.458 30.6591 131.085 30.6591H126.656C126.513 30.6591 126.384 30.6161 126.269 30.5301C126.183 30.4155 126.14 30.2865 126.14 30.1431V1.07511ZM153.202 30.1431L175.304 1.33312C175.677 0.874449 176.15 0.645115 176.723 0.645115H180.808C181.152 0.645115 181.324 0.817115 181.324 1.16112V30.2291C181.324 30.5731 181.152 30.7451 180.808 30.7451H176.723C176.15 30.7451 175.677 30.5158 175.304 30.0571L167.865 20.3391L160.383 30.0571C160.011 30.5158 159.538 30.7451 158.964 30.7451H153.503C153.36 30.7451 153.245 30.6878 153.159 30.5731C153.073 30.4298 153.088 30.2865 153.202 30.1431ZM171.434 15.6951L175.863 21.4571V9.93312L171.434 15.6951ZM187.532 30.2291V1.16112C187.532 1.01778 187.575 0.903116 187.661 0.817115C187.776 0.702449 187.905 0.645115 188.048 0.645115H192.133C192.707 0.645115 193.18 0.874449 193.552 1.33312L209.032 21.4571V1.16112C209.032 0.817115 209.204 0.645115 209.548 0.645115H213.977C214.321 0.645115 214.493 0.817115 214.493 1.16112V30.2291C214.493 30.5731 214.321 30.7451 213.977 30.7451H209.892C209.319 30.7451 208.846 30.5158 208.473 30.0571L193.036 9.93312V30.2291C193.036 30.5731 192.85 30.7451 192.477 30.7451H188.048C187.905 30.7451 187.776 30.7021 187.661 30.6161C187.575 30.5015 187.532 30.3725 187.532 30.2291ZM219.201 1.07511C219.201 0.931782 219.244 0.817115 219.33 0.731117C219.445 0.61645 219.574 0.559116 219.717 0.559116H238.379C238.953 0.559116 239.426 0.788449 239.798 1.24712L242.98 5.41812C243.095 5.56145 243.109 5.70478 243.023 5.84811C242.966 5.96278 242.851 6.02012 242.679 6.02012H233.09V30.1431C233.09 30.4871 232.918 30.6591 232.574 30.6591H228.145C227.801 30.6591 227.629 30.4871 227.629 30.1431V6.02012H219.717C219.574 6.02012 219.445 5.97712 219.33 5.89112C219.244 5.77645 219.201 5.64745 219.201 5.50412V1.07511Z" fill="black"/>
</g>
<defs>
<filter id="filter0_d_150_2" x="0" y="0" width="247.152" height="39.3467" filterUnits="userSpaceOnUse" color-interpolation-filters="sRGB">
<feFlood flood-opacity="0" result="BackgroundImageFix"/>
<feColorMatrix in="SourceAlpha" type="matrix" values="0 0 0 0 0 0 0 0 0 0 0 0 0 0 0 0 0 0 127 0" result="hardAlpha"/>
<feOffset dy="4"/>
<feGaussianBlur stdDeviation="2"/>
<feComposite in2="hardAlpha" operator="out"/>
<feColorMatrix type="matrix" values="0 0 0 0 0 0 0 0 0 0 0 0 0 0 0 0 0 0 0.25 0"/>
<feBlend mode="normal" in2="BackgroundImageFix" result="effect1_dropShadow_150_2"/>
<feBlend mode="normal" in="SourceGraphic" in2="effect1_dropShadow_150_2" result="shape"/>
</filter>
</defs>
</svg>
